# xmcd
#
# Track frame offsets:
#	150
#	14517
#	32496
#	44995
#	58085
#	71697
#	86735
#	99308
#	110635
#	124684
#	139117
#	152166
#	162443
#	175776
#	192961
#	204878
#
# Disc length: 2878 seconds
#
# Revision: 0
# Processed by: cddbd v1.5.2PL0 Copyright (c) Steve Scherf et al.
# Submitted via: EZCDAudioConverter 2.1.7.1
#
DISCID=e10b3c10
DTITLE=The Notations - Still Here 1967-1973
DYEAR=1900
DGENRE=
TTITLE0=A New Day
TTITLE1=I'm Still Here
TTITLE2=Trying My Best To Find Her
TTITLE3=Just You And Me
TTITLE4=This Time I'm For Real
TTITLE5=What More Can I Say
TTITLE6=I Can't Stop
TTITLE7=That Girl
TTITLE8=At The Crossroads
TTITLE9=Leading Lady
TTITLE10=Now I Know How It Feels
TTITLE11=Gonna Get Ready
TTITLE12=I've Been Trying
TTITLE13=I Don't Want To Be Late
TTITLE14=Lonely People
TTITLE15=Young Girl
EXTD=
EXTT0=
EXTT1=
EXTT2=
EXTT3=
EXTT4=
EXTT5=
EXTT6=
EXTT7=
EXTT8=
EXTT9=
EXTT10=
EXTT11=
EXTT12=
EXTT13=
EXTT14=
EXTT15=
PLAYORDER=
